#N canvas 352 164 762 444 10;
#X obj 698 11 thispath;
#X obj 318 20 noise~;
#X obj 180 338 oscilloscope~;
#X obj 180 20 audio-in;
#X obj 181 186 audio-pitch;
#X obj 180 279 audio-out;
#X obj 364 176 audio-eq13;
#X obj 506 108 hsl 128 15 0.001 75 0 0 empty empty empty -2 -8 0 10
-187776 -1 -1 2100 1;
#X obj 318 42 *~ 0.01;
#X obj 371 22 hsl 128 15 0 0.01 0 0 empty empty noise_input_level -2
-8 0 10 -187776 -1 -1 0 1;
#X floatatom 368 42 5 0 0 0 - - -, f 5;
#X obj 333 300 env~;
#X obj 336 323 hsl 128 15 0 500 0 0 empty empty empty -2 -8 0 10 -262144
-1 -1 6900 1;
#X obj 336 365 hsl 128 15 0 500 0 0 empty empty empty -2 -8 0 10 -262144
-1 -1 5800 1;
#X floatatom 297 364 5 0 0 0 - - -, f 5;
#X obj 333 341 inverse 500;
#X obj 38 148 nbx 5 25 -1e+37 1e+37 0 0 empty empty empty 0 -8 0 20
-187776 -1 -1 -0.748031 256;
#X obj 367 300 - 45;
#X obj 333 385 map 0 500 0 1;
#X obj 38 215 nbx 5 25 -1e+37 1e+37 0 0 empty empty empty 0 -8 0 20
-187776 -1 -1 90.5512 256;
#X obj 364 132 delread~ \$0del 50;
#X floatatom 503 126 5 0 0 0 - - -, f 5;
#X obj 364 108 delwrite~ \$0del 2500;
#X obj 506 88 hsl 128 15 75 2500 0 0 empty empty delay_length -2 -8
0 10 -187776 -1 -1 0 1;
#X text 637 87 75-2500;
#X text 638 107 0-75;
#X text 354 279 auto feedback level;
#X obj 75 20 oscilloscope~;
#X obj 194 62 hsl 128 15 0 5 0 0 empty empty gain_in -2 -8 0 10 -187776
-1 -1 0 1;
#X obj 181 104 *~ 1;
#X floatatom 191 79 5 0 0 0 - - -, f 5;
#X text 215 61 I;
#X obj 181 241 ehu/limiter~;
#X floatatom 296 321 5 0 0 0 - - -, f 5;
#X floatatom 297 388 5 0 0 0 - - -, f 5;
#X obj 566 261 list prepend set;
#X obj 566 280 list trim;
#X msg 566 300 0 1 0.87 0.9 0.96 0.91 0.42 0.24 0.53 0.4 0.39 0.03
0.57 0.05 0.82;
#X msg 574 190 get;
#X msg 523 351 0 1 0.87 0.9 0.96 0.91 0.42 0.24 0.53 0.4 0.39 0.03
0.57 0.05 0.82;
#N canvas 2 50 572 697 MIDI 0;
#X obj 11 41 ctlin 0;
#X obj 11 63 / 127;
#X obj 193 56 / 127;
#X obj 193 34 ctlin 32;
#X obj 259 56 / 127;
#X text 195 16 solo;
#X text 260 16 mute;
#X obj 259 34 ctlin 48;
#X obj 329 56 / 127;
#X obj 329 34 ctlin 64;
#X text 330 13 record;
#X text 19 22 vol;
#X obj 118 31 ctlin 16;
#X text 120 13 knob;
#X obj 11 135 / 127;
#X obj 193 128 / 127;
#X obj 259 128 / 127;
#X obj 329 128 / 127;
#X obj 118 125 / 127;
#X obj 11 113 ctlin 1;
#X obj 118 103 ctlin 17;
#X obj 193 106 ctlin 33;
#X obj 259 106 ctlin 49;
#X obj 329 106 ctlin 65;
#X obj 11 156 s vol1;
#X obj 118 146 s p1;
#X obj 193 149 s s1;
#X obj 259 149 s m1;
#X obj 329 148 s r1;
#X obj 9 208 / 127;
#X obj 191 201 / 127;
#X obj 257 201 / 127;
#X obj 327 201 / 127;
#X obj 116 198 / 127;
#X obj 9 186 ctlin 2;
#X obj 116 176 ctlin 18;
#X obj 191 179 ctlin 34;
#X obj 257 179 ctlin 50;
#X obj 327 179 ctlin 66;
#X obj 9 229 s vol2;
#X obj 116 219 s p2;
#X obj 191 222 s s2;
#X obj 257 222 s m2;
#X obj 327 221 s r2;
#X obj 7 281 / 127;
#X obj 189 274 / 127;
#X obj 255 274 / 127;
#X obj 325 274 / 127;
#X obj 114 271 / 127;
#X obj 7 259 ctlin 3;
#X obj 114 249 ctlin 19;
#X obj 189 251 ctlin 35;
#X obj 255 252 ctlin 51;
#X obj 325 252 ctlin 67;
#X obj 7 302 s vol3;
#X obj 114 292 s p3;
#X obj 189 295 s s3;
#X obj 255 295 s m3;
#X obj 325 294 s r3;
#X obj 7 362 / 127;
#X obj 189 355 / 127;
#X obj 255 355 / 127;
#X obj 325 355 / 127;
#X obj 114 352 / 127;
#X obj 7 340 ctlin 4;
#X obj 114 330 ctlin 20;
#X obj 189 332 ctlin 36;
#X obj 255 333 ctlin 52;
#X obj 326 333 ctlin 68;
#X obj 7 383 s vol4;
#X obj 114 373 s p4;
#X obj 189 376 s s4;
#X obj 255 376 s m4;
#X obj 325 375 s r4;
#X obj 7 450 / 127;
#X obj 198 443 / 127;
#X obj 261 444 / 127;
#X obj 329 442 / 127;
#X obj 120 444 / 127;
#X obj 8 426 ctlin 5;
#X obj 118 416 ctlin 21;
#X obj 196 415 ctlin 37;
#X obj 261 415 ctlin 53;
#X obj 329 412 ctlin 69;
#X obj 7 476 s vol5;
#X obj 120 467 s p5;
#X obj 198 469 s s5;
#X obj 261 468 s m5;
#X obj 329 467 s r5;
#X obj 5 535 / 127;
#X obj 196 528 / 127;
#X obj 259 529 / 127;
#X obj 327 527 / 127;
#X obj 118 529 / 127;
#X obj 6 511 ctlin 6;
#X obj 116 501 ctlin 22;
#X obj 194 500 ctlin 38;
#X obj 259 500 ctlin 54;
#X obj 327 497 ctlin 70;
#X obj 5 561 s vol6;
#X obj 118 552 s p6;
#X obj 196 554 s s6;
#X obj 259 553 s m6;
#X obj 326 552 s r6;
#X obj 7 620 / 127;
#X obj 198 613 / 127;
#X obj 261 614 / 127;
#X obj 329 612 / 127;
#X obj 120 614 / 127;
#X obj 8 596 ctlin 7;
#X obj 118 586 ctlin 23;
#X obj 196 585 ctlin 39;
#X obj 261 585 ctlin 55;
#X obj 329 582 ctlin 71;
#X obj 328 637 s r7;
#X obj 261 638 s m7;
#X obj 198 639 s s7;
#X obj 120 637 s p7;
#X obj 7 646 s vol7;
#X obj 11 84 s vol0;
#X obj 193 77 s s0;
#X obj 118 74 s p0;
#X obj 259 77 s m0;
#X obj 329 77 s r0;
#X floatatom 433 24 5 0 0 0 - - -, f 5;
#X floatatom 472 24 5 0 0 0 - - -, f 5;
#X obj 433 2 ctlin;
#X obj 400 80 / 127;
#X msg 400 99 stop;
#X obj 400 117 s sp;
#X obj 456 81 / 127;
#X obj 456 118 s sp;
#X msg 456 100 play;
#X obj 456 63 ctlin 41;
#X obj 512 81 / 127;
#X obj 512 118 s sp;
#X msg 512 100 rec;
#X obj 403 163 / 127;
#X obj 403 200 s sp;
#X obj 459 164 / 127;
#X obj 459 201 s sp;
#X obj 403 145 ctlin 43;
#X obj 459 146 ctlin 44;
#X msg 459 183 1;
#X msg 403 182 -1;
#X obj 400 62 ctlin 42;
#X obj 512 63 ctlin 45;
#X obj 118 53 / 127;
#X connect 0 0 1 0;
#X connect 1 0 119 0;
#X connect 2 0 120 0;
#X connect 3 0 2 0;
#X connect 4 0 122 0;
#X connect 7 0 4 0;
#X connect 8 0 123 0;
#X connect 9 0 8 0;
#X connect 12 0 147 0;
#X connect 14 0 24 0;
#X connect 15 0 26 0;
#X connect 16 0 27 0;
#X connect 17 0 28 0;
#X connect 18 0 25 0;
#X connect 19 0 14 0;
#X connect 20 0 18 0;
#X connect 21 0 15 0;
#X connect 22 0 16 0;
#X connect 23 0 17 0;
#X connect 29 0 39 0;
#X connect 30 0 41 0;
#X connect 31 0 42 0;
#X connect 32 0 43 0;
#X connect 33 0 40 0;
#X connect 34 0 29 0;
#X connect 35 0 33 0;
#X connect 36 0 30 0;
#X connect 37 0 31 0;
#X connect 38 0 32 0;
#X connect 44 0 54 0;
#X connect 45 0 56 0;
#X connect 46 0 57 0;
#X connect 47 0 58 0;
#X connect 48 0 55 0;
#X connect 49 0 44 0;
#X connect 50 0 48 0;
#X connect 51 0 45 0;
#X connect 52 0 46 0;
#X connect 53 0 47 0;
#X connect 59 0 69 0;
#X connect 60 0 71 0;
#X connect 61 0 72 0;
#X connect 62 0 73 0;
#X connect 63 0 70 0;
#X connect 64 0 59 0;
#X connect 65 0 63 0;
#X connect 66 0 60 0;
#X connect 67 0 61 0;
#X connect 68 0 62 0;
#X connect 74 0 84 0;
#X connect 75 0 86 0;
#X connect 76 0 87 0;
#X connect 77 0 88 0;
#X connect 78 0 85 0;
#X connect 79 0 74 0;
#X connect 80 0 78 0;
#X connect 81 0 75 0;
#X connect 82 0 76 0;
#X connect 83 0 77 0;
#X connect 89 0 99 0;
#X connect 90 0 101 0;
#X connect 91 0 102 0;
#X connect 92 0 103 0;
#X connect 93 0 100 0;
#X connect 94 0 89 0;
#X connect 95 0 93 0;
#X connect 96 0 90 0;
#X connect 97 0 91 0;
#X connect 98 0 92 0;
#X connect 104 0 118 0;
#X connect 105 0 116 0;
#X connect 106 0 115 0;
#X connect 107 0 114 0;
#X connect 108 0 117 0;
#X connect 109 0 104 0;
#X connect 110 0 108 0;
#X connect 111 0 105 0;
#X connect 112 0 106 0;
#X connect 113 0 107 0;
#X connect 126 0 124 0;
#X connect 126 1 125 0;
#X connect 127 0 128 0;
#X connect 128 0 129 0;
#X connect 130 0 132 0;
#X connect 132 0 131 0;
#X connect 133 0 130 0;
#X connect 134 0 136 0;
#X connect 136 0 135 0;
#X connect 137 0 144 0;
#X connect 139 0 143 0;
#X connect 141 0 137 0;
#X connect 142 0 139 0;
#X connect 143 0 140 0;
#X connect 144 0 138 0;
#X connect 145 0 127 0;
#X connect 146 0 134 0;
#X connect 147 0 121 0;
#X restore 19 318 pd MIDI;
#N canvas 80 448 824 287 eqmidi 0;
#X obj 49 120 r vol0;
#X obj 334 246 outlet;
#X msg 49 147 eq1 \$1;
#X obj 96 121 r vol1;
#X obj 144 120 r vol2;
#X obj 191 121 r vol3;
#X obj 240 121 r vol4;
#X obj 287 122 r vol5;
#X obj 335 121 r vol6;
#X obj 382 122 r vol7;
#X msg 96 148 eq2 \$1;
#X msg 144 147 eq3 \$1;
#X msg 191 148 eq4 \$1;
#X msg 240 148 eq5 \$1;
#X msg 287 149 eq6 \$1;
#X msg 335 148 eq7 \$1;
#X msg 382 149 eq8 \$1;
#X msg 427 151 eq9 \$1;
#X msg 474 152 eq10 \$1;
#X msg 522 151 eq11 \$1;
#X msg 569 152 eq12 \$1;
#X msg 618 152 eq13 \$1;
#X obj 431 117 r p0;
#X obj 480 117 r p1;
#X obj 527 118 r p2;
#X obj 575 117 r p3;
#X obj 622 118 r p4;
#X connect 0 0 2 0;
#X connect 2 0 1 0;
#X connect 3 0 10 0;
#X connect 4 0 11 0;
#X connect 5 0 12 0;
#X connect 6 0 13 0;
#X connect 7 0 14 0;
#X connect 8 0 15 0;
#X connect 9 0 16 0;
#X connect 10 0 1 0;
#X connect 11 0 1 0;
#X connect 12 0 1 0;
#X connect 13 0 1 0;
#X connect 14 0 1 0;
#X connect 15 0 1 0;
#X connect 16 0 1 0;
#X connect 17 0 1 0;
#X connect 18 0 1 0;
#X connect 19 0 1 0;
#X connect 20 0 1 0;
#X connect 21 0 1 0;
#X connect 22 0 17 0;
#X connect 23 0 18 0;
#X connect 24 0 19 0;
#X connect 25 0 20 0;
#X connect 26 0 21 0;
#X restore 681 161 pd eqmidi;
#X obj 4 116 r p4;
#X obj 4 139 * 10;
#X obj 4 161 - 5;
#X obj 4 199 r p5;
#X obj 4 222 * 30;
#X obj 593 41 r p6;
#X obj 593 62 * 100;
#X text 509 205 << EQ;
#X obj 541 147 cnv 15 80 30 empty empty empty 20 12 0 14 -187776 -66577
0;
#X msg 545 153 rand 0 1;
#X text 598 153 << RAND EQ;
#X obj 273 122 *~ 0;
#X obj 367 88 hsl 128 15 0 0.95 0 0 empty empty delay_feedback -2 -8
0 10 -187776 -1 -1 9600 1;
#X floatatom 326 86 5 0 0 0 - - -, f 5;
#X obj 41 128 hsl 128 15 -5 5 0 0 empty empty pitch -2 -8 0 10 -187776
-1 -1 5400 1;
#X obj 41 194 hsl 128 15 0 500 0 0 empty empty window -2 -8 0 10 -187776
-1 -1 2300 1;
#X text 539 126 < milisecs;
#X obj 332 275 flow~;
#X text 112 126 I;
#X obj 364 154 *~ 1;
#X obj 407 257 loadbang;
#X text 180 2 ONLY IF SOUND IN;
#X text 19 299 use NANOKONTROL;
#X connect 1 0 8 0;
#X connect 3 0 29 0;
#X connect 4 0 22 0;
#X connect 4 0 32 0;
#X connect 4 0 59 0;
#X connect 5 0 2 0;
#X connect 6 0 4 0;
#X connect 6 1 35 0;
#X connect 7 0 23 0;
#X connect 8 0 4 0;
#X connect 9 0 10 0;
#X connect 10 0 8 1;
#X connect 11 0 17 0;
#X connect 12 0 15 0;
#X connect 12 0 33 0;
#X connect 13 0 18 0;
#X connect 13 0 14 0;
#X connect 15 0 13 0;
#X connect 16 0 4 1;
#X connect 17 0 12 0;
#X connect 18 0 34 0;
#X connect 18 0 61 1;
#X connect 19 0 4 2;
#X connect 20 0 53 0;
#X connect 20 0 61 0;
#X connect 21 0 20 0;
#X connect 23 0 21 0;
#X connect 28 0 30 0;
#X connect 29 0 27 0;
#X connect 29 0 4 0;
#X connect 30 0 29 1;
#X connect 32 0 5 0;
#X connect 32 0 5 1;
#X connect 35 0 36 0;
#X connect 36 0 37 0;
#X connect 38 0 6 1;
#X connect 41 0 6 1;
#X connect 42 0 43 0;
#X connect 43 0 44 0;
#X connect 44 0 16 0;
#X connect 45 0 46 0;
#X connect 46 0 19 0;
#X connect 47 0 48 0;
#X connect 48 0 23 0;
#X connect 51 0 6 1;
#X connect 53 0 22 0;
#X connect 54 0 55 0;
#X connect 55 0 53 1;
#X connect 56 0 16 0;
#X connect 57 0 19 0;
#X connect 59 0 11 0;
#X connect 61 0 6 0;
#X connect 62 0 59 1;
